<?xml version="1.0" encoding="UTF-8"?><svg xmlns="http://www.w3.org/2000/svg" viewBox="0 0 1920 203"><defs><style>.d{fill:#ff843d;}.e{fill:#09f;}.f{fill:#bfd08c;}</style></defs><g id="a"/><g id="b"><g id="c"><g><path class="e" d="M0,0V136c39,9,71.65,12.68,149,21,366.19,39.39,457.65-14.76,736.71-21h106.29c190.89,4,251,27,545,26,161.9-.55,294-14,383-26V0H0Z"/><path class="f" d="M992,136h-106.29c-91.73,2.05-163.19,9.28-230.8,16.66,74.65,20.37,193.07,38.93,303.1,39.34,111.77,.41,231.41-17.84,306.9-38.14-94.71-6.73-161.56-15.52-272.9-17.86Z"/><path class="d" d="M1264.9,153.86c-12.23,3.29-25.63,6.53-39.97,9.64,75.85,22.28,180.67,37.73,294.77,39.51h44.07c77.35-1.21,157.7-8.87,235.23-25,40.78-8.48,81.33-19.43,121-32.23v-9.77c-89,12-221.1,25.45-383,26-122.53,.42-204.43-3.34-272.1-8.14Z"/></g></g></g></svg>