<?xml version="1.0" encoding="UTF-8"?><svg id="Layer_2" xmlns="http://www.w3.org/2000/svg" xmlns:xlink="http://www.w3.org/1999/xlink" viewBox="0 0 1280 631.06"><defs><style>.cls-1{letter-spacing:0em;}.cls-2{letter-spacing:-.08em;}.cls-3{fill:url(#linear-gradient);}.cls-4{letter-spacing:-.02em;}.cls-5{letter-spacing:-.06em;}.cls-6{fill:#2e2249;}.cls-7{letter-spacing:-.03em;}.cls-8{letter-spacing:-.11em;}.cls-9{letter-spacing:0em;}.cls-10{letter-spacing:0em;}.cls-11{letter-spacing:0em;}.cls-12{letter-spacing:0em;}.cls-13{font-size:32.32px;opacity:.9;}.cls-13,.cls-14{fill:#fff;font-family:'Noto Sans JP',sans-serif;font-weight:700;}.cls-15{fill:url(#linear-gradient-8);}.cls-16{fill:url(#linear-gradient-9);}.cls-17{fill:url(#linear-gradient-3);}.cls-18{fill:url(#linear-gradient-4);}.cls-19{fill:url(#linear-gradient-6);}.cls-20{fill:url(#linear-gradient-7);}.cls-21{fill:url(#linear-gradient-5);}.cls-22{letter-spacing:-.06em;}.cls-23{letter-spacing:-.03em;}.cls-24{letter-spacing:0em;}.cls-25{letter-spacing:-.5em;}.cls-26{letter-spacing:0em;}.cls-27{fill:url(#linear-gradient-2);fill-rule:evenodd;}.cls-14{font-size:80px;}.cls-28{letter-spacing:-.51em;}.cls-29{letter-spacing:-.01em;}.cls-30{letter-spacing:-.01em;}.cls-31{letter-spacing:-.01em;}</style><linearGradient id="linear-gradient" x1="1104.12" y1="444.16" x2="1201.07" y2="444.16" gradientUnits="userSpaceOnUse"><stop offset="0" stop-color="#6e53b3" stop-opacity=".5"/><stop offset="1" stop-color="#fff" stop-opacity=".2"/></linearGradient><linearGradient id="linear-gradient-2" x1="878.49" x2="994.46" xlink:href="#linear-gradient"/><linearGradient id="linear-gradient-3" x1="649.6" y1="444.36" x2="748.27" y2="444.36" xlink:href="#linear-gradient"/><linearGradient id="linear-gradient-4" x1="386.95" y1="443.96" x2="493.13" y2="443.96" xlink:href="#linear-gradient"/><linearGradient id="linear-gradient-5" x1="102.34" y1="443.96" x2="217.52" y2="443.96" xlink:href="#linear-gradient"/><linearGradient id="linear-gradient-6" x1="269.6" y1="443.96" x2="329.95" y2="443.96" xlink:href="#linear-gradient"/><linearGradient id="linear-gradient-7" x1="550.14" y1="443.96" x2="610.49" y2="443.96" xlink:href="#linear-gradient"/><linearGradient id="linear-gradient-8" x1="798.35" y1="443.96" x2="858.7" y2="443.96" xlink:href="#linear-gradient"/><linearGradient id="linear-gradient-9" x1="1014.25" y1="443.96" x2="1074.6" y2="443.96" xlink:href="#linear-gradient"/></defs><rect class="cls-6" x="0" width="1280" height="631.06"/><g><g><path id="Layer_1-2" class="cls-3" d="M1134.5,469.28c0-.58,.47-1.04,1.04-1.04h57.33c.58,0,1.04,.47,1.04,1.04s-.47,1.04-1.04,1.04h-57.33c-.58,0-1.04-.47-1.04-1.04Zm58.37-8.12h-57.33c-.58,0-1.04-.47-1.04-1.04s.47-1.04,1.04-1.04h57.33c.58,0,1.04,.47,1.04,1.04s-.47,1.04-1.04,1.04Zm0-9.16h-57.33c-.58,0-1.04-.47-1.04-1.04s.47-1.04,1.04-1.04h57.33c.58,0,1.04,.47,1.04,1.04s-.47,1.04-1.04,1.04Zm0-9.16h-57.33c-.58,0-1.04-.47-1.04-1.04s.47-1.04,1.04-1.04h57.33c.58,0,1.04,.47,1.04,1.04s-.47,1.04-1.04,1.04Zm0-9.16h-57.33c-.58,0-1.04-.47-1.04-1.04s.47-1.04,1.04-1.04h57.33c.58,0,1.04,.47,1.04,1.04s-.47,1.04-1.04,1.04Zm8.2,52.08v-78.19h-24.68v-20.8h-49.05v98.99h73.72Zm-65.53-61.24c-.58,0-1.04-.47-1.04-1.04s.47-1.04,1.04-1.04h57.33c.58,0,1.04,.47,1.04,1.04s-.47,1.04-1.04,1.04h-57.33Zm0-9.16c-.58,0-1.04-.47-1.04-1.04s.47-1.04,1.04-1.04h57.33c.58,0,1.04,.47,1.04,1.04s-.47,1.04-1.04,1.04h-57.33Zm0-9.16c-.58,0-1.04-.47-1.04-1.04s.47-1.04,1.04-1.04h35.22c.58,0,1.04,.47,1.04,1.04s-.47,1.04-1.04,1.04h-35.22Zm-1.04,72.24c0-.58,.47-1.04,1.04-1.04h57.33c.58,0,1.04,.47,1.04,1.04s-.47,1.04-1.04,1.04h-57.33c-.58,0-1.04-.47-1.04-1.04Zm1.04-81.4c-.58,0-1.04-.47-1.04-1.04s.47-1.04,1.04-1.04h35.22c.58,0,1.04,.47,1.04,1.04s-.47,1.04-1.04,1.04h-35.22Zm-10.28,89.77v-94.04h-9.53v6.83h0v94.05h69.74v-5.8h-59.17c-.58,0-1.04-.47-1.04-1.04h0Zm-11.61,7.89v-94.04h-9.52v100.88h65.76v-5.8h-55.2c-.58,0-1.04-.47-1.04-1.04h0Zm64.83-107.92l22.59,18.71h-22.59v-18.71Z"/><path class="cls-27" d="M948.79,431.59c13.09,0,23.7,10.61,23.7,23.7s-10.61,23.7-23.7,23.7-23.7-10.61-23.7-23.7,10.61-23.7,23.7-23.7Zm18.05,44.29l4.61,4.52-.25,.26c-.83,.85-.8,2.22,.05,3.05l13.02,12.63c.85,.83,2.22,.8,3.05-.05l4.7-4.84c.83-.85,.8-2.22-.05-3.05l-13.02-12.63c-.85-.83-2.22-.8-3.05,.05l-.29,.3-4.74-4.64c-1.18,1.61-2.54,3.09-4.04,4.41Zm-66.12-88.4c-12.43,.94-22.23,11.33-22.23,24,0,13.29,10.78,24.07,24.07,24.07,3.73,0,7.27-.85,10.42-2.37l-11.95-20.67c-.2-.29-.32-.65-.32-1.03v-24Zm55.73,94.11v17.66c0,1.27-1.03,2.3-2.3,2.3h-7.64c-1.27,0-2.3-1.03-2.3-2.3v-16.95c1.49,.25,3.02,.38,4.58,.38,2.66,0,5.23-.38,7.66-1.09h0Zm.56-83.42c-1.02,0-1.84-.82-1.84-1.84s.82-1.84,1.84-1.84h17.81c1.02,0,1.84,.82,1.84,1.84s-.82,1.84-1.84,1.84h-17.81Zm-16.39,26.64h6.21c1.43,0,2.59,1.16,2.59,2.59v.53c-.21,0-.42,0-.63,0-3.82,0-7.46,.78-10.76,2.2v-2.71c0-1.43,1.16-2.59,2.59-2.59h0Zm23.36,7.71c1.6,1.07,3.08,2.31,4.42,3.68h6.41c1.02,0,1.84-.82,1.84-1.84s-.82-1.84-1.84-1.84h-10.83Zm-6.97-4.03c-1.02,0-1.84-.82-1.84-1.84s.82-1.84,1.84-1.84h35.61c1.02,0,1.84,.82,1.84,1.84s-.82,1.84-1.84,1.84h-35.61Zm-16.39-22.69h6.21c1.43,0,2.59,1.16,2.59,2.59v6.21c0,1.43-1.16,2.59-2.59,2.59h-6.21c-1.43,0-2.59-1.16-2.59-2.59v-6.21c0-1.43,1.16-2.59,2.59-2.59Zm16.39,11.39c-1.02,0-1.84-.82-1.84-1.84s.82-1.84,1.84-1.84h17.81c1.02,0,1.84,.82,1.84,1.84s-.82,1.84-1.84,1.84h-17.81Zm0-7.71c-1.02,0-1.84-.82-1.84-1.84s.82-1.84,1.84-1.84h35.61c1.02,0,1.84,.82,1.84,1.84s-.82,1.84-1.84,1.84h-35.61Zm-16.39-22.69h6.21c1.43,0,2.59,1.16,2.59,2.59v6.21c0,1.43-1.16,2.59-2.59,2.59h-6.21c-1.43,0-2.59-1.16-2.59-2.59v-6.21c0-1.43,1.16-2.59,2.59-2.59Zm16.39,3.68c-1.02,0-1.84-.82-1.84-1.84s.82-1.84,1.84-1.84h35.61c1.02,0,1.84,.82,1.84,1.84s-.82,1.84-1.84,1.84h-35.61Zm-22.78,88.03c-4.75-2.99-8.52-7.4-10.71-12.63-.89,.32-1.54,1.17-1.54,2.17v31.21c0,1.27,1.03,2.3,2.3,2.3h7.64c1.27,0,2.3-1.03,2.3-2.3v-20.76h0Zm-32.17-29.72h7.64c1.27,0,2.3,1.03,2.3,2.3v48.17c0,1.27-1.03,2.3-2.3,2.3h-7.64c-1.27,0-2.3-1.03-2.3-2.3v-48.17c0-1.27,1.03-2.3,2.3-2.3Zm-21.27,10.75h7.64c1.27,0,2.3,1.03,2.3,2.3v37.43c0,1.27-1.03,2.3-2.3,2.3h-7.64c-1.27,0-2.3-1.03-2.3-2.3v-37.43c0-1.27,1.03-2.3,2.3-2.3Zm35.37-28.17l-10.42-18.02h20.82c-.57,7.48-4.55,14.01-10.4,18.02Zm10.4-21.7h-22.16v-22.16c11.83,.89,21.27,10.33,22.16,22.16Zm22.23,30.23c-4.26,0-8.11,1.73-10.9,4.52-2.79,2.79-4.52,6.64-4.52,10.9,0,3.92,1.47,7.5,3.88,10.23,1.5-4.95,6.1-8.56,11.54-8.56s10.04,3.61,11.54,8.56c2.41-2.72,3.88-6.3,3.88-10.23,0-4.26-1.73-8.11-4.52-10.9s-6.64-4.52-10.9-4.52h0Zm0,3.98c-3.37,0-6.09,2.73-6.09,6.09s2.73,6.09,6.09,6.09,6.09-2.73,6.09-6.09-2.73-6.09-6.09-6.09h0Zm-13.5-2.07c-3.46,3.46-5.59,8.23-5.59,13.5s2.14,10.05,5.59,13.5c3.46,3.46,8.23,5.59,13.5,5.59s10.05-2.14,13.5-5.59c3.46-3.46,5.59-8.23,5.59-13.5s-2.14-10.05-5.59-13.5c-3.46-3.46-8.23-5.59-13.5-5.59s-10.05,2.14-13.5,5.59h0Z"/><path class="cls-17" d="M678.59,444.77c16,0,28.99-12.98,28.99-28.99s-12.98-29.01-28.99-29.01-28.99,12.98-28.99,28.99,12.98,29.01,28.99,29.01Zm-10.13-17.54c.26-.96,.53-1.9,.82-2.86,.34-1.1,.65-1.22,1.66-.7,1.73,.89,3.55,1.39,5.47,1.63,1.22,.14,2.45,.02,3.58-.48,2.14-.94,2.47-3.41,.67-4.9-.62-.5-1.32-.89-2.04-1.2-1.87-.82-3.82-1.44-5.59-2.5-2.86-1.7-4.68-4.08-4.46-7.56,.24-3.94,2.47-6.41,6.07-7.7,1.49-.55,1.49-.53,1.51-2.09v-1.58c.02-1.18,.24-1.37,1.39-1.42h1.08q2.5,0,2.5,2.5c0,1.75,0,1.78,1.75,2.04,1.34,.22,2.62,.6,3.86,1.15,.7,.31,.94,.79,.74,1.51-.31,1.08-.6,2.16-.96,3.22-.34,1.01-.65,1.15-1.61,.7-1.94-.94-3.98-1.34-6.14-1.22-.58,.02-1.1,.1-1.63,.34-1.85,.82-2.16,2.86-.58,4.13,.79,.65,1.7,1.1,2.66,1.49,1.63,.67,3.29,1.34,4.87,2.21,4.97,2.76,6.31,9,2.81,13.25-1.27,1.54-2.9,2.57-4.85,3.1-.84,.24-1.22,.67-1.18,1.54,.05,.86,0,1.7,0,2.57,0,.77-.38,1.18-1.15,1.2-.91,.02-1.85,.02-2.76,0-.82-.02-1.2-.48-1.2-1.27,0-.62,0-1.25-.02-1.87-.02-1.37-.05-1.44-1.39-1.66-1.7-.26-3.36-.65-4.92-1.42-1.18-.55-1.3-.86-.96-2.14Zm75.15,19.96h-3.38c-2.23-6.84-6.6-12.91-12.43-17.61,0-.22-.05-.46-.1-.67-1.22-4.3,.29-8.21,2.04-11.01,1.22-1.97-.36-4.49-2.66-4.2-5.16,.65-8.71,2.54-11.16,4.68-1.68,1.46-2.88,3.43-3.41,5.61-3.7,15.31-17.49,26.71-33.93,26.71-7.99,0-15.33-2.69-21.21-7.2-2.04,4.42-3.14,9.24-3.14,14.3,0,2.74,.34,5.4,.96,7.97h0s0,.05,.02,.12c.65,2.66,1.63,5.23,2.88,7.65,1.66,3.58,4.06,7.75,7.37,11.13,4.78,4.92,5.59,11.01,5.71,13.65v1.3h0c.1,1.3,1.18,2.33,2.5,2.33h15.16c1.37,0,2.5-1.1,2.5-2.5v-3.74c2.21,.29,4.46,.46,6.74,.46,1.8,0,3.55-.1,5.3-.29v3.58c0,1.37,1.1,2.5,2.5,2.5h15.21c1.37,0,2.5-1.1,2.5-2.5v-3.74c.02-1.25,.46-6.21,5.16-10.46,.17-.14,.34-.29,.5-.43,.05-.05,.1-.07,.14-.12h0c5.23-4.66,9.09-10.46,11.09-16.94h3.19c2.54,0,4.61-2.06,4.61-4.61v-11.35c-.05-2.54-2.11-4.61-4.66-4.61Zm-18.98,.82c-2.09,0-3.77-1.68-3.77-3.77s1.68-3.77,3.77-3.77,3.77,1.68,3.77,3.77c0,2.09-1.68,3.77-3.77,3.77Z"/><path class="cls-18" d="M392.89,386.37v15.23h12.69v6.74h-12.69v12.76h12.69v6.74h-12.69v12.76h12.69v6.74h-12.69v12.76h12.69v6.74h-12.69v12.76h12.69v6.74h-12.69v15.23h100.24v-115.18h-100.24Zm37.14,95.76l-9.82-9.8,4.77-4.76,5.05,5.04,10.91-10.89,4.77,4.76-15.69,15.66Zm0-28.38l-9.82-9.8,4.77-4.76,5.05,5.04,10.91-10.89,4.77,4.76-15.69,15.66Zm0-28.38l-9.82-9.8,4.77-4.76,5.05,5.04,10.91-10.89,4.77,4.76-15.69,15.66Zm47.91,52.14h-21.88v-6.74h21.88v6.74Zm0-30.17h-21.88v-6.74h21.88v6.74Zm0-27.96h-21.88v-6.74h21.88v6.74Zm-90.99,40.7h5.93v6.74h-5.93v-6.74Zm0,19.49h5.93v6.74h-5.93v-6.74Zm0-58.48h5.93v6.74h-5.93v-6.74Zm0,19.49h5.93v6.74h-5.93v-6.74Zm0-38.99h5.93v6.74h-5.93v-6.74Z"/><path class="cls-21" d="M173.43,481.3c-5.58,0-10.12,4.54-10.12,10.12,2.82-2.11,6.33-3.37,10.12-3.37h44.09v-6.75h-44.09Zm-26.99-6.75c1.15,0,2.27,.12,3.35,.34-4.29-4.37-10.26-7.08-16.85-7.08h-23.85v-74.68h-6.75v81.43h44.09Zm26.99,20.25c-4.4,0-8.15,2.82-9.54,6.75h53.63v-6.75h-44.09Zm-26.99,0h-44.09v6.75h53.63c-1.39-3.93-5.14-6.75-9.54-6.75Zm0-6.75c3.79,0,7.3,1.26,10.12,3.38,0-5.59-4.54-10.13-10.12-10.13h-44.09v6.75h44.09Zm64.34-20.25h-23.85c-6.59,0-12.56,2.72-16.85,7.08,1.08-.22,2.2-.34,3.35-.34h44.09v-81.43h-6.75v74.68Zm-54.21-57.81c0-13.02-10.6-23.62-23.62-23.62h-17.1v74.68h17.1c9.53,0,18.05,4.41,23.62,11.3v-62.37Zm6.75,0v62.37c5.57-6.89,14.09-11.3,23.62-11.3h17.1v-74.68h-17.1c-13.02,0-23.62,10.6-23.62,23.62Z"/><path class="cls-19" d="M328.98,441.61l-21.79-21.79c-.62-.62-1.45-.96-2.34-.96s-1.71,.34-2.34,.96l-1.98,1.98c-.62,.62-.96,1.45-.96,2.34s.34,1.74,.96,2.36l12.71,12.74h-40.39c-1.82,0-3.26,1.43-3.26,3.25v2.8c0,1.82,1.44,3.39,3.26,3.39h40.54l-12.86,12.81c-.62,.62-.96,1.43-.96,2.31s.34,1.7,.96,2.32l1.98,1.97c.62,.62,1.45,.96,2.34,.96s1.71-.34,2.34-.97l21.79-21.79c.62-.62,.97-1.46,.96-2.34,0-.89-.34-1.72-.96-2.35Z"/><path class="cls-20" d="M609.52,441.61l-21.79-21.79c-.62-.62-1.45-.96-2.34-.96s-1.71,.34-2.34,.96l-1.98,1.98c-.62,.62-.96,1.45-.96,2.34s.34,1.74,.96,2.36l12.71,12.74h-40.39c-1.82,0-3.26,1.43-3.26,3.25v2.8c0,1.82,1.44,3.39,3.26,3.39h40.54l-12.86,12.81c-.62,.62-.96,1.43-.96,2.31s.34,1.7,.96,2.32l1.98,1.97c.62,.62,1.45,.96,2.34,.96s1.71-.34,2.34-.97l21.79-21.79c.62-.62,.97-1.46,.96-2.34,0-.89-.34-1.72-.96-2.35Z"/><path class="cls-15" d="M857.74,441.61l-21.79-21.79c-.62-.62-1.45-.96-2.34-.96s-1.71,.34-2.34,.96l-1.98,1.98c-.62,.62-.96,1.45-.96,2.34s.34,1.74,.96,2.36l12.71,12.74h-40.39c-1.82,0-3.26,1.43-3.26,3.25v2.8c0,1.82,1.44,3.39,3.26,3.39h40.54l-12.86,12.81c-.62,.62-.96,1.43-.96,2.31s.34,1.7,.96,2.32l1.98,1.97c.62,.62,1.45,.96,2.34,.96s1.71-.34,2.34-.97l21.79-21.79c.62-.62,.97-1.46,.96-2.34,0-.89-.34-1.72-.96-2.35Z"/><path class="cls-16" d="M1073.63,441.61l-21.79-21.79c-.62-.62-1.45-.96-2.34-.96s-1.71,.34-2.34,.96l-1.98,1.98c-.62,.62-.96,1.45-.96,2.34s.34,1.74,.96,2.36l12.71,12.74h-40.39c-1.82,0-3.26,1.43-3.26,3.25v2.8c0,1.82,1.44,3.39,3.26,3.39h40.54l-12.86,12.81c-.62,.62-.96,1.43-.96,2.31s.34,1.7,.96,2.32l1.98,1.97c.62,.62,1.45,.96,2.34,.96s1.71-.34,2.34-.97l21.79-21.79c.62-.62,.97-1.46,.96-2.34,0-.89-.34-1.72-.96-2.35Z"/><text class="cls-13" transform="translate(1104.11 436.48)"><tspan x="0" y="0">発</tspan><tspan class="cls-22" x="32.32" y="0">表</tspan><tspan class="cls-8" x="62.74" y="0">と</tspan><tspan x="0" y="38.79">論文化</tspan></text><text class="cls-13" transform="translate(888.22 436.48)"><tspan x="0" y="0">研</tspan><tspan class="cls-11" x="32.32" y="0">究</tspan><tspan class="cls-30" x="64.61" y="0">の</tspan><tspan x="15.93" y="38.79">実施</tspan></text><text class="cls-13" transform="translate(640 436.48)"><tspan x="0" y="0">研究</tspan><tspan class="cls-11" x="64.65" y="0">費</tspan><tspan class="cls-29" x="96.94" y="0">の</tspan><tspan x="32.1" y="38.79">獲得</tspan></text><text class="cls-13" transform="translate(359.46 436.48)"><tspan x="0" y="0">研究計</tspan><tspan class="cls-12" x="96.97" y="0">画</tspan><tspan class="cls-31" x="129.26" y="0">の</tspan><tspan x="48.26" y="38.79">立案</tspan></text><text class="cls-13" transform="translate(78.92 436.48)"><tspan x="0" y="0">専門知</tspan><tspan class="cls-12" x="96.97" y="0">識</tspan><tspan class="cls-31" x="129.26" y="0">の</tspan><tspan x="48.26" y="38.79">獲得</tspan></text></g><text class="cls-14" transform="translate(189.16 192.38)"><tspan x="0" y="0">博士学</tspan><tspan class="cls-26" x="240" y="0">位</tspan><tspan class="cls-7" x="319.2" y="0">を</tspan><tspan class="cls-9" x="396.72" y="0">取</tspan><tspan class="cls-5" x="476.72" y="0">得</tspan><tspan class="cls-2" x="551.84" y="0">し</tspan><tspan class="cls-4" x="625.2" y="0">た</tspan><tspan class="cls-24" x="703.52" y="0">者</tspan><tspan class="cls-23" x="783.76" y="0">が</tspan><tspan class="cls-25" x="861.44" y="0">、</tspan><tspan x="250.84" y="96">全</tspan><tspan class="cls-1" x="330.84" y="96">員</tspan><tspan class="cls-25" x="410.6" y="96">、</tspan><tspan x="450.84" y="96">就</tspan><tspan class="cls-10" x="530.84" y="96">職</tspan><tspan class="cls-28" x="611.64" y="96">。</tspan></text></g></svg>