<svg xmlns="http://www.w3.org/2000/svg" xmlns:xlink="http://www.w3.org/1999/xlink" id="Layer_2" viewBox="0 0 6400 2400"><defs><linearGradient id="linear-gradient" x1="5490.93" x2="5970.83" y1="1845.02" y2="1845.02" gradientUnits="userSpaceOnUse"><stop offset="0" stop-color="#6e53b3" stop-opacity=".5"/><stop offset="1" stop-color="#fff" stop-opacity=".2"/></linearGradient><linearGradient xlink:href="#linear-gradient" id="linear-gradient-2" x1="4374.04" x2="4948.11"/><linearGradient xlink:href="#linear-gradient" id="linear-gradient-3" x1="3241.04" x2="3729.45" y1="1846.03" y2="1846.03"/><linearGradient xlink:href="#linear-gradient" id="linear-gradient-4" x1="1940.91" x2="2466.5" y1="1844.01" y2="1844.01"/><linearGradient xlink:href="#linear-gradient" id="linear-gradient-5" x1="532.09" x2="1102.21" y1="1844.01" y2="1844.01"/><linearGradient xlink:href="#linear-gradient" id="linear-gradient-6" x1="1359.99" x2="1658.73" y1="1844.01" y2="1844.01"/><linearGradient xlink:href="#linear-gradient" id="linear-gradient-7" x1="2748.68" x2="3047.41" y1="1844.01" y2="1844.01"/><linearGradient xlink:href="#linear-gradient" id="linear-gradient-8" x1="3977.36" x2="4276.1" y1="1844.01" y2="1844.01"/><linearGradient xlink:href="#linear-gradient" id="linear-gradient-9" x1="5046.05" x2="5344.79" y1="1844.01" y2="1844.01"/><style>.cls-1{letter-spacing:0}.cls-2{letter-spacing:-.08em}.cls-4{letter-spacing:-.02em}.cls-5{letter-spacing:-.06em}.cls-7{letter-spacing:-.03em}.cls-10,.cls-9{letter-spacing:0}.cls-11{font-size:160px;opacity:.9}.cls-11,.cls-12{fill:#fff;font-family:SourceHanSansSC-Bold-GBpc-EUC-H,&apos;Source Han Sans SC&apos;}.cls-21{letter-spacing:-.03em}.cls-22,.cls-23{letter-spacing:0}.cls-24{letter-spacing:-.5em}.cls-25{letter-spacing:0}.cls-12{font-size:366px}.cls-27{letter-spacing:-.51em}.cls-28{letter-spacing:-.01em}</style></defs><path fill="#2e2249" d="M0 0h6400v2400H0z"/><path id="Layer_1-2" fill="url(#linear-gradient)" d="M5641.29 1969.36a5.16 5.16 0 0 1 5.16-5.16h283.78a5.16 5.16 0 1 1 0 10.32h-283.78a5.16 5.16 0 0 1-5.16-5.16Zm288.95-40.18h-283.78a5.16 5.16 0 1 1 0-10.32h283.78a5.16 5.16 0 1 1 0 10.32Zm0-45.34h-283.78a5.16 5.16 0 1 1 0-10.32h283.78a5.16 5.16 0 1 1 0 10.32Zm0-45.34h-283.78a5.16 5.16 0 1 1 0-10.32h283.78a5.16 5.16 0 1 1 0 10.32Zm0-45.34h-283.78a5.16 5.16 0 1 1 0-10.32h283.78a5.16 5.16 0 1 1 0 10.32Zm40.59 257.82v-387.04h-122.14v-102.97h-242.8v490h364.94Zm-324.37-303.16a5.16 5.16 0 1 1 0-10.32h283.78a5.16 5.16 0 1 1 0 10.32h-283.78Zm0-45.34a5.16 5.16 0 1 1 0-10.32h283.78a5.16 5.16 0 1 1 0 10.32h-283.78Zm0-45.34a5.16 5.16 0 1 1 0-10.32h174.33a5.16 5.16 0 1 1 0 10.32h-174.33Zm-5.16 357.58a5.16 5.16 0 0 1 5.16-5.16h283.78a5.16 5.16 0 1 1 0 10.32h-283.78a5.16 5.16 0 0 1-5.16-5.16Zm5.16-402.92a5.16 5.16 0 1 1 0-10.32h174.33a5.16 5.16 0 1 1 0 10.32h-174.33Zm-50.9 444.35v-465.49h-47.15v499.38h345.23v-28.72h-292.92a5.16 5.16 0 0 1-5.16-5.16Zm-57.48 39.05v-465.49h-47.15v499.38h325.54v-28.72h-273.23a5.16 5.16 0 0 1-5.16-5.16Zm320.93-534.22 111.81 92.64h-111.81v-92.64Z"/><text class="cls-11" transform="translate(5490.88 1807.01)"><tspan x="0" y="0">発</tspan><tspan x="160" y="0" letter-spacing="-.06em">表</tspan><tspan x="310.56" y="0" letter-spacing="-.11em">と</tspan><tspan x="0" y="192">論文化</tspan></text><path fill="url(#linear-gradient-2)" fill-rule="evenodd" d="M4722.03 1782.8c64.8 0 117.33 52.53 117.33 117.33s-52.53 117.33-117.33 117.33-117.33-52.53-117.33-117.33 52.53-117.33 117.33-117.33Zm89.36 219.24 22.84 22.39-1.23 1.27c-4.08 4.21-3.98 11 .23 15.08l64.43 62.52c4.21 4.08 11 3.98 15.08-.23l23.26-23.97c4.09-4.21 3.98-11-.23-15.08l-64.43-62.52c-4.21-4.09-11-3.98-15.08.23l-1.42 1.47-23.45-22.98a136.262 136.262 0 0 1-20 21.83Zm-327.31-437.58c-61.55 4.65-110.04 56.07-110.04 118.81 0 65.81 53.35 119.15 119.15 119.15 18.48 0 35.98-4.21 51.59-11.72l-59.15-102.33a9.04 9.04 0 0 1-1.56-5.1v-118.81Zm275.88 465.83v87.4c0 6.27-5.12 11.39-11.39 11.39h-37.84c-6.27 0-11.39-5.12-11.39-11.39v-83.91c7.38 1.24 14.95 1.9 22.69 1.9 13.17 0 25.89-1.89 37.93-5.39Zm2.75-412.95c-5.03 0-9.11-4.08-9.11-9.11s4.08-9.11 9.11-9.11h88.14c5.03 0 9.11 4.08 9.11 9.11s-4.08 9.11-9.11 9.11h-88.14Zm-81.12 131.85h30.73c7.06 0 12.82 5.76 12.82 12.82v2.6c-1.04-.02-2.08-.04-3.12-.04-18.91 0-36.91 3.88-53.26 10.87v-13.43c0-7.06 5.76-12.82 12.82-12.82Zm115.63 38.15c7.93 5.3 15.27 11.42 21.9 18.22h31.73c5.03 0 9.11-4.08 9.11-9.11s-4.08-9.11-9.11-9.11h-53.63Zm-34.51-19.93c-5.03 0-9.11-4.08-9.11-9.11s4.08-9.11 9.11-9.11h176.28c5.03 0 9.11 4.08 9.11 9.11s-4.08 9.11-9.11 9.11h-176.28Zm-81.12-112.34h30.73c7.06 0 12.82 5.76 12.82 12.82v30.73c0 7.06-5.76 12.82-12.82 12.82h-30.73c-7.06 0-12.82-5.76-12.82-12.82v-30.73c0-7.06 5.76-12.82 12.82-12.82Zm81.12 56.38c-5.03 0-9.11-4.08-9.11-9.11s4.08-9.11 9.11-9.11h88.14c5.03 0 9.11 4.08 9.11 9.11s-4.08 9.11-9.11 9.11h-88.14Zm0-38.15c-5.03 0-9.11-4.08-9.11-9.11s4.08-9.11 9.11-9.11h176.28c5.03 0 9.11 4.08 9.11 9.11s-4.08 9.11-9.11 9.11h-176.28Zm-81.12-112.34h30.73c7.06 0 12.82 5.76 12.82 12.82v30.73c0 7.06-5.76 12.82-12.82 12.82h-30.73c-7.06 0-12.82-5.76-12.82-12.82v-30.73c0-7.06 5.76-12.82 12.82-12.82Zm81.12 18.22c-5.03 0-9.11-4.08-9.11-9.11s4.08-9.11 9.11-9.11h176.28c5.03 0 9.11 4.08 9.11 9.11s-4.08 9.11-9.11 9.11h-176.28Zm-112.77 435.74c-23.51-14.79-42.16-36.61-53-62.5-4.43 1.56-7.62 5.79-7.62 10.74v154.51c0 6.27 5.12 11.39 11.39 11.39h37.84c6.27 0 11.39-5.12 11.39-11.39v-102.76Zm-159.24-147.09h37.84c6.27 0 11.39 5.12 11.39 11.39v238.46c0 6.27-5.12 11.39-11.39 11.39h-37.84c-6.27 0-11.39-5.12-11.39-11.39v-238.46c0-6.27 5.12-11.39 11.39-11.39Zm-105.28 53.2h37.84c6.27 0 11.39 5.12 11.39 11.39v185.27c0 6.27-5.12 11.39-11.39 11.39h-37.84c-6.27 0-11.39-5.12-11.39-11.39v-185.27c0-6.27 5.12-11.39 11.39-11.39Zm175.09-139.45-51.56-89.2h103.04c-2.8 37.04-22.54 69.34-51.48 89.2Zm51.48-107.43H4502.3v-109.7c58.54 4.43 105.27 51.16 109.69 109.7Zm110.03 149.65c-21.07 0-40.15 8.54-53.96 22.35-13.81 13.81-22.35 32.89-22.35 53.96 0 19.42 7.25 37.15 19.2 50.62 7.41-24.52 30.18-42.38 57.12-42.38s49.71 17.86 57.11 42.38c11.95-13.47 19.2-31.2 19.2-50.62 0-21.07-8.54-40.15-22.35-53.96-13.81-13.81-32.89-22.35-53.97-22.35Zm0 19.72c-16.66 0-30.16 13.5-30.16 30.16s13.5 30.16 30.16 30.16 30.16-13.5 30.16-30.16-13.5-30.16-30.16-30.16Zm-66.85-10.25c-17.11 17.11-27.69 40.74-27.69 66.85s10.58 49.74 27.69 66.85c17.11 17.11 40.74 27.69 66.85 27.69s49.74-10.58 66.85-27.69c17.11-17.11 27.69-40.74 27.69-66.85s-10.58-49.74-27.69-66.85c-17.11-17.11-40.74-27.69-66.85-27.69s-49.74 10.58-66.85 27.69Z"/><text class="cls-11" transform="translate(4422.19 1807.01)"><tspan x="0" y="0">研</tspan><tspan x="160" y="0" class="cls-10">究</tspan><tspan x="319.84" y="0" class="cls-28">の</tspan><tspan x="78.88" y="192">実施</tspan></text><path fill="url(#linear-gradient-3)" d="M3384.52 1848.05c79.22 0 143.48-64.26 143.48-143.48s-64.26-143.6-143.48-143.6-143.48 64.26-143.48 143.48 64.26 143.6 143.48 143.6Zm-50.12-86.83c1.31-4.75 2.61-9.38 4.04-14.13 1.66-5.46 3.21-6.06 8.2-3.44 8.55 4.39 17.58 6.89 27.08 8.08 6.06.71 12.12.12 17.7-2.38 10.57-4.63 12.23-16.87 3.33-24.23-3.09-2.49-6.53-4.39-10.1-5.94-9.26-4.04-18.89-7.13-27.68-12.35-14.13-8.43-23.16-20.19-22.09-37.41 1.19-19.48 12.23-31.71 30.05-38.13 7.36-2.73 7.36-2.61 7.48-10.33v-7.84c.12-5.82 1.19-6.77 6.89-7.01h5.34q12.35 0 12.35 12.35c0 8.67 0 8.79 8.67 10.1 6.65 1.07 12.95 2.97 19.12 5.7 3.44 1.54 4.63 3.92 3.68 7.48-1.54 5.34-2.97 10.69-4.75 15.92-1.66 4.99-3.21 5.7-7.96 3.44-9.62-4.63-19.72-6.65-30.41-6.06-2.85.12-5.46.48-8.08 1.66-9.15 4.04-10.69 14.13-2.85 20.43 3.92 3.21 8.43 5.46 13.18 7.36 8.08 3.33 16.27 6.65 24.11 10.93 24.59 13.66 31.24 44.54 13.9 65.56-6.3 7.6-14.37 12.71-23.99 15.32-4.16 1.19-6.06 3.33-5.82 7.6.24 4.28 0 8.43 0 12.71 0 3.8-1.9 5.82-5.7 5.94-4.51.12-9.15.12-13.66 0-4.04-.12-5.94-2.38-5.94-6.3 0-3.09 0-6.18-.12-9.26-.12-6.77-.24-7.13-6.89-8.2-8.43-1.31-16.63-3.21-24.35-7.01-5.82-2.73-6.41-4.28-4.75-10.57Zm372.01 98.82h-16.75c-11.05-33.85-32.66-63.9-61.53-87.18 0-1.07-.24-2.26-.48-3.33-6.06-21.26 1.43-40.62 10.1-54.52 6.06-9.74-1.78-22.21-13.18-20.79-25.54 3.21-43.12 12.59-55.23 23.16a53.79 53.79 0 0 0-16.87 27.79c-18.29 75.78-86.59 132.2-167.95 132.2-39.55 0-75.9-13.3-105-35.63-10.1 21.85-15.56 45.73-15.56 70.79 0 13.54 1.66 26.72 4.75 39.43s0 .24.12.59c3.21 13.18 8.08 25.89 14.25 37.89 8.2 17.7 20.07 38.36 36.46 55.11 23.64 24.35 27.68 54.52 28.27 67.58v6.41c.48 6.41 5.82 11.52 12.35 11.52h75.07c6.77 0 12.35-5.46 12.35-12.35v-18.53c10.93 1.43 22.09 2.26 33.38 2.26 8.91 0 17.58-.48 26.25-1.43v17.7c0 6.77 5.46 12.35 12.35 12.35h75.3c6.77 0 12.35-5.46 12.35-12.35v-18.53c.12-6.18 2.26-30.76 25.54-51.79.83-.71 1.66-1.43 2.49-2.14.24-.24.48-.36.71-.59 25.89-23.04 45.02-51.79 54.87-83.86h15.8c12.59 0 22.81-10.21 22.81-22.81v-56.18c-.24-12.59-10.45-22.81-23.04-22.81Zm-93.95 4.04c-10.33 0-18.65-8.31-18.65-18.65s8.31-18.65 18.65-18.65 18.65 8.31 18.65 18.65c0 10.33-8.31 18.65-18.65 18.65Z"/><text class="cls-11" transform="translate(3193.51 1807.01)"><tspan x="0" y="0">研究</tspan><tspan x="320" y="0" class="cls-10">費</tspan><tspan x="479.84" y="0" class="cls-28">の</tspan><tspan x="158.88" y="192">獲得</tspan></text><path fill="url(#linear-gradient-4)" d="M1970.28 1558.95v75.41h62.79v33.34h-62.79v63.16h62.79v33.34h-62.79v63.15h62.79v33.34h-62.79v63.15h62.79v33.34h-62.79v63.16h62.79v33.34h-62.79v75.4h496.21v-570.13h-496.21Zm183.86 474.03-48.63-48.53 23.62-23.58 25.01 24.96 54.03-53.92 23.62 23.58-77.65 77.5Zm0-140.47-48.63-48.53 23.62-23.58 25.01 24.96 54.03-53.92 23.62 23.58-77.65 77.5Zm0-140.47-48.63-48.53 23.62-23.58 25.01 24.96 54.03-53.92 23.62 23.58-77.65 77.5Zm237.18 258.07h-108.33v-33.34h108.33v33.34Zm0-149.34h-108.33v-33.34h108.33v33.34Zm0-138.42h-108.33v-33.34h108.33v33.34Zm-450.41 201.47h29.38v33.34h-29.38v-33.34Zm0 96.5h29.38v33.34h-29.38v-33.34Zm0-289.48h29.38v33.34h-29.38v-33.34Zm0 96.49h29.38v33.34h-29.38v-33.34Zm0-192.99h29.38v33.34h-29.38v-33.34Z"/><text class="cls-11" transform="translate(1804.82 1807.01)"><tspan x="0" y="0">研究計</tspan><tspan x="480" y="0" class="cls-10">画</tspan><tspan x="639.84" y="0" class="cls-28">の</tspan><tspan x="238.88" y="192">立案</tspan></text><path fill="url(#linear-gradient-5)" d="M883.96 2028.86c-27.63 0-50.11 22.48-50.11 50.11 13.97-10.47 31.32-16.7 50.11-16.7h218.25v-33.41H883.96Zm-133.62-33.41c5.68 0 11.23.58 16.59 1.66-21.23-21.63-50.77-35.07-83.4-35.07H565.5v-369.69h-33.41v403.1h218.25Zm133.62 100.22c-21.78 0-40.34 13.96-47.24 33.41h265.49v-33.41H883.96Zm-133.62 0H532.09v33.41h265.49c-6.9-19.44-25.46-33.41-47.24-33.41Zm0-33.41c18.79 0 36.14 6.23 50.11 16.74 0-27.67-22.48-50.15-50.11-50.15H532.09v33.41h218.25Zm318.47-100.22H950.78c-32.63 0-62.17 13.44-83.4 35.07a83.199 83.199 0 0 1 16.59-1.66h218.25v-403.1h-33.41v369.69Zm-268.36-286.18c0-64.47-52.45-116.92-116.92-116.92H598.9v369.69h84.63c47.18 0 89.34 21.85 116.92 55.96v-308.73Zm33.41 0v308.71c27.58-34.1 69.75-55.94 116.92-55.94h84.63v-369.69h-84.63c-64.47 0-116.92 52.45-116.92 116.92Z"/><text class="cls-11" transform="translate(416.13 1807.01)"><tspan x="0" y="0">専門知</tspan><tspan x="480" y="0" class="cls-10">識</tspan><tspan x="639.84" y="0" class="cls-28">の</tspan><tspan x="238.88" y="192">獲得</tspan></text><path fill="url(#linear-gradient-6)" d="m1653.95 1832.41-107.88-107.89c-3.08-3.08-7.18-4.77-11.56-4.77s-8.48 1.69-11.56 4.77l-9.8 9.8c-3.08 3.07-4.77 7.18-4.77 11.56s1.7 8.62 4.77 11.7l62.94 63.08h-199.96c-9.02 0-16.14 7.06-16.14 16.08v13.85c0 9.02 7.12 16.79 16.14 16.79h200.67l-63.65 63.43c-3.08 3.08-4.77 7.07-4.77 11.45s1.7 8.43 4.77 11.5l9.8 9.77c3.08 3.08 7.18 4.76 11.56 4.76s8.48-1.7 11.56-4.78l107.88-107.88c3.09-3.09 4.78-7.21 4.77-11.6 0-4.4-1.69-8.52-4.77-11.61Z"/><path fill="url(#linear-gradient-7)" d="m3042.64 1832.41-107.88-107.89c-3.08-3.08-7.18-4.77-11.56-4.77s-8.48 1.69-11.56 4.77l-9.8 9.8c-3.08 3.07-4.77 7.18-4.77 11.56s1.7 8.62 4.77 11.7l62.94 63.08h-199.96c-9.02 0-16.14 7.06-16.14 16.08v13.85c0 9.02 7.12 16.79 16.14 16.79h200.67l-63.65 63.43c-3.08 3.08-4.77 7.07-4.77 11.45s1.7 8.43 4.77 11.5l9.8 9.77c3.08 3.08 7.18 4.76 11.56 4.76s8.48-1.7 11.56-4.78l107.88-107.88c3.09-3.09 4.78-7.21 4.77-11.6 0-4.4-1.69-8.52-4.77-11.61Z"/><path fill="url(#linear-gradient-8)" d="m4271.32 1832.41-107.88-107.89c-3.08-3.08-7.18-4.77-11.56-4.77s-8.48 1.69-11.56 4.77l-9.8 9.8c-3.08 3.07-4.77 7.18-4.77 11.56s1.7 8.62 4.77 11.7l62.94 63.08H3993.5c-9.02 0-16.14 7.06-16.14 16.08v13.85c0 9.02 7.12 16.79 16.14 16.79h200.67l-63.65 63.43c-3.08 3.08-4.77 7.07-4.77 11.45s1.7 8.43 4.77 11.5l9.8 9.77c3.08 3.08 7.18 4.76 11.56 4.76s8.48-1.7 11.56-4.78l107.88-107.88c3.09-3.09 4.78-7.21 4.77-11.6 0-4.4-1.69-8.52-4.77-11.61Z"/><path fill="url(#linear-gradient-9)" d="m5340.01 1832.41-107.88-107.89c-3.08-3.08-7.18-4.77-11.56-4.77s-8.48 1.69-11.56 4.77l-9.8 9.8c-3.08 3.07-4.77 7.18-4.77 11.56s1.7 8.62 4.77 11.7l62.94 63.08h-199.96c-9.02 0-16.14 7.06-16.14 16.08v13.85c0 9.02 7.12 16.79 16.14 16.79h200.67l-63.65 63.43c-3.08 3.08-4.77 7.07-4.77 11.45s1.7 8.43 4.77 11.5l9.8 9.77c3.08 3.08 7.18 4.76 11.56 4.76s8.48-1.7 11.56-4.78l107.88-107.88c3.09-3.09 4.78-7.21 4.77-11.6 0-4.4-1.69-8.52-4.77-11.61Z"/><text class="cls-12" transform="translate(1137.4 652.46)"><tspan x="0" y="0">博士学</tspan><tspan x="1098" y="0" class="cls-25">位</tspan><tspan x="1460.34" y="0" class="cls-7">を</tspan><tspan x="1815" y="0" class="cls-23">取</tspan><tspan x="2181" y="0" class="cls-5">得</tspan><tspan x="2524.68" y="0" class="cls-2">し</tspan><tspan x="2860.3" y="0" class="cls-4">た</tspan><tspan x="3218.61" y="0" class="cls-22">者</tspan><tspan x="3585.71" y="0" class="cls-21">が</tspan><tspan x="3941.11" y="0" class="cls-24">、</tspan><tspan x="1147.6" y="439.2">全</tspan><tspan x="1513.6" y="439.2" class="cls-1">員</tspan><tspan x="1878.51" y="439.2" class="cls-24">、</tspan><tspan x="2062.6" y="439.2">就</tspan><tspan x="2428.6" y="439.2" class="cls-9">職</tspan><tspan x="2798.26" y="439.2" class="cls-27">。</tspan></text><text class="cls-12" transform="translate(1137.4 652.46)"><tspan x="0" y="0">博士学</tspan><tspan x="1098" y="0" class="cls-25">位</tspan><tspan x="1460.34" y="0" class="cls-7">を</tspan><tspan x="1815" y="0" class="cls-23">取</tspan><tspan x="2181" y="0" class="cls-5">得</tspan><tspan x="2524.68" y="0" class="cls-2">し</tspan><tspan x="2860.3" y="0" class="cls-4">た</tspan><tspan x="3218.61" y="0" class="cls-22">者</tspan><tspan x="3585.71" y="0" class="cls-21">が</tspan><tspan x="3941.11" y="0" class="cls-24">、</tspan><tspan x="1147.6" y="439.2">全</tspan><tspan x="1513.6" y="439.2" class="cls-1">員</tspan><tspan x="1878.51" y="439.2" class="cls-24">、</tspan><tspan x="2062.6" y="439.2">就</tspan><tspan x="2428.6" y="439.2" class="cls-9">職</tspan><tspan x="2798.26" y="439.2" class="cls-27">。</tspan></text></svg>